# Blender v2.90.1 OBJ File: 'Angled.blend'
# www.blender.org
mtllib Angled.mtl
o Cube
v 1.000000 -1.000000 -1.000000
v 1.000000 -1.000000 1.000000
v -1.000000 1.000000 -1.000000
v -1.000000 -1.000000 -1.000000
v -1.000000 1.000000 1.000000
v -1.000000 -1.000000 1.000000
v -1.000000 1.000000 -1.000000
v 1.000000 -1.000000 -1.000000
v 1.000000 -1.000000 1.000000
v -1.000000 1.000000 1.000000
vt 0.375000 0.750000
vt 0.375000 0.750000
vt 0.625000 1.000000
vt 0.625000 1.000000
vt 0.375000 1.000000
vt 0.375000 0.000000
vt 0.625000 0.000000
vt 0.625000 0.250000
vt 0.375000 0.250000
vt 0.125000 0.500000
vt 0.375000 0.500000
vt 0.125000 0.750000
vt 0.875000 0.500000
vt 0.875000 0.500000
vt 0.875000 0.750000
vt 0.875000 0.750000
vt 0.375000 0.500000
vt 0.625000 0.250000
vn 0.0000 0.0000 1.0000
vn -1.0000 0.0000 0.0000
vn 0.0000 -1.0000 0.0000
vn 0.7071 0.7071 0.0000
vn 0.0000 0.0000 -1.0000
usemtl Material
s off
f 2/1/1 9/2/1 10/3/1 5/4/1 6/5/1
f 6/6/2 5/7/2 3/8/2 4/9/2
f 4/10/3 1/11/3 2/1/3 6/12/3
f 7/13/1 3/14/1 5/15/1 10/16/1
f 1/11/1 8/17/1 9/2/1 2/1/1
f 7/13/4 10/16/4 9/2/4 8/17/4
f 4/9/5 3/8/5 7/18/5 8/17/5 1/11/5
